<svg version="1" xmlns="http://www.w3.org/2000/svg" width="933.333" height="933.333" viewBox="0 0 700.000000 700.000000"><path d="M329.8.5c-.2.1-4.8.6-10.2.9-5.5.4-10.2.8-10.5 1-.3.2-3.5.7-7 1-3.5.4-8.5 1.1-11 1.6s-5.7 1.2-7.1 1.4c-34.4 6.2-76.4 21.7-106.6 39.2-6.4 3.7-26.1 16.1-27.7 17.4-.7.6-5.7 4.4-11.2 8.5-53.8 40.4-96 98.2-118.5 162-2.8 8-9.6 30.7-10.4 34.8-.2 1.2-.9 4.2-1.5 6.7-1.1 4.9-1.3 6.3-3.5 19.5-3.3 20.3-4 30.1-4 57 0 23.2 1 37.7 3.9 54.5.6 3.2 2.4 12.9 2.9 15.5 3.2 16.1 12 45.7 17.1 57 .7 1.6 2.3 5.5 3.5 8.5 2.7 7 13.9 29.3 19.3 38.5 14.8 25.3 33.1 49.4 52.9 69.2l6.2 6.2 4.1-8.7c5.4-11.2 15.3-27.3 24.3-39.5 4-5.4 7.2-10.1 7.2-10.5 0-.5-.9-1.7-1.9-2.6-1-.9-3.3-4.7-5.1-8.3-2.7-5.5-3.4-8.1-3.8-15.4-.7-13 .7-16.5 13.6-32.3 5.8-7.2 17.6-21.7 26-32.1 8.5-10.5 16.9-20.8 18.7-23 2.4-3 79.8-98.3 107.7-132.8 1.7-2 3.4-3.7 3.8-3.7.4 0 1 1.4 1.4 3.1.3 1.6 2.6 7.2 5 12.2 16.8 35 54.1 69.3 86.3 79.6l5.3 1.7-15 12.7c-8.2 7.1-16.2 13.9-17.7 15.2-1.5 1.3-11.3 9.7-21.8 18.5-10.4 8.9-20.1 17.1-21.5 18.3-1.4 1.3-10.1 8.8-19.5 16.7-9.3 8-17.2 14.7-17.5 15-.3.3-4.8 4.1-10 8.5s-10.8 9.1-12.5 10.6c-2.7 2.5-18.4 15.9-31.5 26.9-2.9 2.5-5.8 5-6.4 5.5-8.6 8-27.4 22.9-29.9 23.6-1.7.5-6.8 1-11.3 1-9.8.1-19.4-2.5-27.8-7.6-3.2-1.9-6-3.5-6.1-3.5-.6 0-13.5 17.8-18.1 25-5.1 8-15.6 27.9-16.9 31.9-.8 2.6-1.7 1.7 14.2 14.6 21.5 17.6 38.7 28.7 63.3 41.1 28.2 14.2 53.9 23.2 85 29.8 11.5 2.4 13 2.7 27 4.6 23.5 3.2 67.6 3.4 88 .4 28-4.2 49.1-9.1 70.3-16.4 87.3-30.1 158.5-92.4 199.6-174.7 20.1-40.2 31.5-80.8 35.8-126.8 1.5-15.5.7-61.9-1.2-71-.2-1.1-.7-3.9-.9-6.3-.3-2.4-1.3-8.4-2.1-13.5-12.4-71-48.2-138.6-100.1-188.7-15.9-15.3-18.7-17.8-32.7-28.4-38.4-29-77.6-48.1-124.7-60.5-11-2.9-34.5-7.3-46-8.6-3-.4-6.8-.8-8.5-1.1-3.4-.5-52.2-1.4-52.7-.9zm120.7 149.6c21.9 3.6 41.9 14.1 58.5 30.7 21.7 21.8 32.1 46.8 32.2 77.7.1 8.8-.2 11-2.2 22.7-2.6 14.3-12.2 35.4-20.8 45.7l-2.9 3.5-5.9-1.3c-12.4-2.8-31.9-12-48.1-22.7-49-32.6-89.6-84.1-101.1-128.5-.9-3.6-.9-3.7 3.9-7.3 2.7-2 5.3-3.6 5.8-3.6.4 0 1.3-.6 1.9-1.3 1-1.1 9.6-5.7 17.2-9 6.6-2.9 21.1-6.6 28.3-7.3 4-.3 7.3-.8 7.5-.9.7-.6 19.4.5 25.7 1.6zM353.9 191c6.2 17.7 20.5 43.6 31.5 57.1 1.2 1.4 3.2 4.1 4.6 5.9 5.2 7.1 14.8 17.8 23.5 26.5 29.2 29 61.1 49 92.3 58.1 2.1.6 1.3 5-1.5 7.9-5 5-16.5 12.5-19.2 12.5-4.9 0-20.7-5.8-31.6-11.6-19.3-10.2-25.7-14.1-39.5-24.8-39.4-30.3-73.2-76.7-81.5-111.7-2-8.7-2-8.9 2.3-15.1 6.9-10.3 10.1-13.2 14.8-13.7.6 0 2.6 3.9 4.3 8.9zM329 232c15.8 39.4 53.5 83 95.3 110.3 12.1 7.9 30 17.3 38.5 20.3 2.8 1 5.2 2.1 5.2 2.4 0 .6-4.8 2.9-13.5 6.5-11.1 4.7-31.5 9.7-39 9.6-25.8-.2-67-29.4-90-63.6-15.5-23.1-21.2-42.6-17.1-58.4.9-3.5 3.2-9.8 5.2-14 2-4.2 5.2-11.1 7.1-15.4 2-4.3 3.9-7.4 4.3-7 .3.4 2.1 4.6 4 9.3z"/><path d="M272.9 399.7c-7.7 7.6-14.3 14.9-14.6 16.2-.5 2.1.4 3.5 6.1 8.8 4.1 3.8 7.7 6.3 9 6.3 1.5 0 6.7-4.6 16.4-14.4 11.3-11.4 14.1-14.7 13.6-16.2-1.1-2.8-11.5-13-14.2-13.8-2.1-.7-4.2 1-16.3 13.1z"/></svg>