<svg viewBox="0 0 1148 189" xmlns="http://www.w3.org/2000/svg" fill-rule="evenodd" clip-rule="evenodd" stroke-linejoin="round" stroke-miterlimit="1.414"><g transform="matrix(.99532 0 0 .95367 -126.336 -277.181)"><path fill="none" d="M126.93 290.646H1280v197.326H126.93z"/><clipPath id="a"><path d="M126.93 290.646H1280v197.326H126.93z"/></clipPath><g clip-path="url(#a)" fill="#d14949"><path d="M312.878 446.573h75.151c1.809 0 3.014-1.258 3.014-3.146v-27.472c0-1.888-1.205-3.146-3.014-3.146h-39.183c-.804 0-1.206-.42-1.206-1.258V302.918c0-1.887-1.205-3.145-3.014-3.145h-31.748c-1.809 0-3.014 1.258-3.014 3.145v140.51c0 1.887 1.205 3.145 3.014 3.145zm88.212 41.733h1.206c41.595 0 49.03-12.373 56.866-41.313l25.319-105.487c.401-2.097-.603-3.565-2.613-3.565l-34.36-.42c-1.809 0-2.814.84-3.014 2.936l-3.416 45.718c0-.21-1.206-.21-1.206 0l-3.818-45.718c-.2-2.097-1.206-2.936-3.014-2.936h-34.16c-2.01 0-3.014 1.468-2.612 3.565l25.117 105.487c1.608 8.389-6.028 9.437-19.692 9.437h-.804c-.602 0-1.004 1.259-1.004 3.146v26.005c0 1.887.402 3.145 1.205 3.145zm144.276-152.253c-7.636 0-12.459 3.775-15.473 9.437-.603 1.049-1.206.84-1.206-.419v-4.404c0-1.887-1.205-3.146-3.014-3.146h-31.748c-1.809 0-3.014 1.259-3.014 3.146v102.55c0 1.888 1.205 3.146 3.014 3.146h31.748c1.809 0 3.014-1.258 3.014-3.145V389.32c0-4.404 2.412-9.437 6.23-11.325 3.416-1.677 8.44-1.677 11.654-.839 2.01.42 3.014.21 3.416-2.097l5.024-32.925c.2-1.887 0-3.146-1.407-3.985-2.01-1.258-4.622-2.097-8.238-2.097zm33.154-5.872c10.851 0 18.889-8.388 18.889-19.713 0-11.744-7.837-19.713-18.888-19.713-11.052 0-18.889 7.969-18.889 19.713 0 11.325 7.837 19.713 18.889 19.713zm-15.472 116.392h31.749c1.808 0 3.014-1.258 3.014-3.146v-102.76c0-1.887-1.206-3.146-3.014-3.146h-31.749c-1.808 0-3.014 1.259-3.014 3.146v102.76c0 1.888 1.206 3.146 3.014 3.146zm84.395 1.677c26.926 0 42.198-13.63 42.198-37.328v-5.872c0-1.888-1.206-3.146-3.014-3.146l-31.749-.42c-1.809 0-3.014 1.259-3.014 3.146v3.146c0 3.984-1.809 6.71-4.42 6.71-2.814 0-4.622-2.726-4.622-6.71v-31.457c0-3.985 1.808-6.711 4.621-6.711 2.612 0 4.42 2.726 4.42 6.71v2.937c0 1.887 1.206 2.936 3.015 2.936l31.749-1.049c1.808 0 3.014-1.468 3.014-3.355v-4.614c0-22.23-15.272-37.33-42.198-37.33-26.926 0-42.398 15.1-42.398 37.33v37.749c0 23.697 15.472 37.329 42.398 37.329zm90.222 0c24.716 0 41.394-12.582 41.394-33.344 0-21.39-17.884-28.102-32.15-32.506-5.426-1.677-14.066-4.404-14.066-10.695 0-2.307 1.205-5.453 4.22-5.453 2.41 0 4.42 1.888 4.42 5.453v2.097c0 1.258 1.206 2.307 3.014 2.307h29.137c1.808 0 3.014-.839 3.014-2.097 0-22.86-15.875-38.168-40.59-38.168-23.51 0-39.384 13.631-39.384 35.651 0 20.972 14.467 29.99 25.72 33.764 8.64 2.936 18.687 4.195 18.687 10.067 0 2.306-1.406 3.984-3.818 3.984-2.41 0-5.827-1.887-5.827-6.501v-1.468c0-.839-1.205-1.258-3.014-1.258h-30.141c-1.808 0-3.014 1.258-3.014 3.145v.63c0 20.552 16.678 34.393 42.398 34.393zm96.251-148.477h-45.212c-1.808 0-3.014 1.258-3.014 3.145v140.51c0 1.887 1.206 3.145 3.014 3.145h31.749c1.808 0 3.014-1.258 3.014-3.146v-50.122c0-.838.603-1.258 1.205-1.258h11.253c23.31 0 39.183-17.826 39.183-45.089 0-27.892-16.678-47.185-41.192-47.185zm-6.631 61.866h-2.613c-.803 0-1.205-.42-1.205-1.259v-25.585c0-.839.603-1.258 1.205-1.258h2.613c5.827 0 10.047 4.613 10.047 14.26 0 9.438-4.22 13.842-10.047 13.842zm96.652 86.611c27.328 0 42.6-13.63 42.6-37.328v-37.75c0-22.229-15.272-37.328-42.6-37.328-27.328 0-42.8 15.1-42.8 37.329v37.749c0 23.697 15.472 37.329 42.8 37.329zm0-33.763c-3.014 0-5.024-2.727-5.024-6.711v-31.457c0-3.985 2.01-6.711 5.024-6.711 2.813 0 4.823 2.726 4.823 6.71v31.458c0 3.984-2.01 6.71-4.823 6.71zm91.026 33.763c24.716 0 41.394-12.582 41.394-33.344 0-21.39-17.884-28.102-32.15-32.506-5.426-1.677-14.067-4.404-14.067-10.695 0-2.307 1.206-5.453 4.22-5.453 2.411 0 4.42 1.888 4.42 5.453v2.097c0 1.258 1.206 2.307 3.015 2.307h29.136c1.809 0 3.014-.839 3.014-2.097 0-22.86-15.874-38.168-40.59-38.168-23.51 0-39.384 13.631-39.384 35.651 0 20.972 14.468 29.99 25.72 33.764 8.64 2.936 18.688 4.195 18.688 10.067 0 2.306-1.407 3.984-3.818 3.984s-5.827-1.887-5.827-6.501v-1.468c0-.839-1.206-1.258-3.014-1.258h-30.141c-1.809 0-3.014 1.258-3.014 3.145v.63c0 20.552 16.678 34.393 42.398 34.393zm102.479-86.611v-20.972c0-1.887-1.205-3.146-3.014-3.146h-8.44c-.803 0-1.205-.629-1.205-1.258v-22.44c0-1.887-1.205-3.145-3.014-3.145h-30.141c-1.808 0-3.014 1.258-3.014 3.145v22.44c0 .839-.402 1.258-1.206 1.258h-5.425c-1.809 0-3.014 1.259-3.014 3.146v20.972c0 1.887 1.205 3.145 3.014 3.145h5.425c.804 0 1.206.63 1.206 1.259v56.203c0 20.762 13.463 24.327 33.155 24.327h9.645c1.809 0 3.014-1.258 3.014-3.146v-27.682c0-1.887-1.205-3.146-3.014-3.146h-.402c-3.617.21-6.229-.839-6.229-6.291v-40.265c0-.84.402-1.259 1.206-1.259h8.44c1.808 0 3.013-1.258 3.013-3.145zm90.624 37.119v-25.585c0-22.23-15.271-37.33-42.197-37.33-26.926 0-42.398 15.1-42.398 37.33v37.749c0 23.697 15.472 37.329 42.398 37.329 27.127 0 40.389-11.744 41.595-36.28.2-2.098-1.005-3.147-2.813-3.356l-30.744-2.097c-1.809-.21-2.814.838-3.416 2.726-.402 2.726-1.809 5.243-4.622 5.243-2.813 0-4.622-2.727-4.622-6.711v-4.614c0-.839.402-1.258 1.206-1.258h42.6c1.808 0 3.013-1.258 3.013-3.146zm-42.197-29.15c2.612 0 4.42 2.726 4.42 6.71v5.034c0 .839-.401 1.258-1.205 1.258h-6.631c-.804 0-1.206-.42-1.206-1.258v-5.033c0-3.985 1.809-6.711 4.622-6.711zm104.288-33.555c-7.636 0-12.458 3.775-15.472 9.437-.603 1.049-1.206.84-1.206-.419v-4.404c0-1.887-1.206-3.146-3.014-3.146h-31.749c-1.808 0-3.014 1.259-3.014 3.146v102.55c0 1.888 1.206 3.146 3.014 3.146h31.749c1.808 0 3.014-1.258 3.014-3.145V389.32c0-4.404 2.411-9.437 6.23-11.325 3.415-1.677 8.439-1.677 11.653-.839 2.01.42 3.014.21 3.416-2.097l5.023-32.925c.201-1.887 0-3.146-1.406-3.985-2.01-1.258-4.622-2.097-8.238-2.097z" fill-rule="nonzero"/><path d="M148.607 425.83c-13.168-13.342-21.354-32.01-21.354-52.659 0-40.508 31.512-73.397 70.326-73.397 38.815 0 70.326 32.889 70.326 73.397 0 40.51-31.511 73.399-70.326 73.399-18.21 0-34.813-7.24-47.308-19.108 2.228-5.615 5.463-10.19 7.25-12.426 4.65 3.883 9.649 2.063 9.649 2.063l40.344-35.917s-5.348-.728-11.86-7.523c-6.627-6.674-7.905-12.862-7.905-12.862l-33.483 43.076s-2.558 4.853 1.627 9.707c-1.778 2.212-4.964 6.65-7.286 12.25zm39.374-41.251l-5.116 5.34c-.348.363-.929.363-1.394 0l-2.093-2.063c-.349-.364-.349-.971 0-1.457l5.115-5.338c.35-.365.93-.365 1.395 0l2.093 2.183a.983.983 0 0 1 0 1.335zm4.534-38.464c-.813 1.699-1.86 4.125-2.906 6.551-.814 1.942-.93 4.248-.349 6.31.814 3.034 2.79 7.767 7.673 12.741 5.348 5.582 9.999 7.402 12.44 7.888a6.38 6.38 0 0 0 3.023 0c4.651-1.093 7.325-2.306 9.069-3.276-3.372-1.215-10.464-4.612-17.556-12.014-7.325-7.766-10.348-14.56-11.394-18.2zm5.232-8.251l-1.28.364c-1.161 1.213-2.79 3.882-2.79 3.882l.234 1.092s1.162 8.858 11.51 19.658c9.417 9.828 18.602 12.134 18.602 12.134l1.162.12s3.023-2.184 3.488-2.668c.465-.486.581-1.578.581-1.578s-8.836-1.577-19.416-12.74c-10.114-10.8-12.091-20.264-12.091-20.264zm31.856-.244c-8.138-8.493-21.16-8.979-30.112-1.334l.233 1.214c0 .12 1.86 8.979 11.626 19.171 9.998 10.435 18.253 12.134 18.253 12.134l1.279.242c7.324-9.464 6.859-22.932-1.28-31.427z"/></g></g></svg>