<svg id="Layer_1" xmlns="http://www.w3.org/2000/svg" viewBox="0 0 515.3 94.9"><style>.st0{fill:#d14949}</style><path class="st0" d="M0 73.5l8.2-67C8.3 5.6 9 5 9.8 5h15.4c.8 0 1.3.6 1.2 1.5l-6.3 51.8c-.1.4.1.6.5.6h18.9c.9 0 1.4.6 1.3 1.5l-1.6 13.1c-.2.9-.8 1.5-1.7 1.5H1.2c-.8 0-1.3-.6-1.2-1.5zm41 19.9L42.5 81c.1-.9.4-1.5.7-1.5h.4c6.6 0 10.3-.5 10.1-4.5l-6-50.3c-.1-1 .5-1.7 1.5-1.7h16.5c.8 0 1.3.4 1.2 1.4l-.8 21.8c0-.1.6-.1.6 0L71 24.4c.2-1 .8-1.4 1.6-1.4l16.6.2c1 0 1.4.7 1.1 1.7L71.9 75.2C66.4 89 62.1 94.9 42 94.9h-.6c-.4 0-.5-.6-.4-1.5zm82.8-70.1c.6.4.7 1 .5 1.9l-4.4 15.7c-.3 1.1-.8 1.2-1.8 1-1.5-.4-3.9-.4-5.6.4-2 .9-3.5 3.3-3.7 5.4l-3.2 25.7c-.1.9-.7 1.5-1.6 1.5H88.7c-.9 0-1.4-.6-1.3-1.5l6-48.9c.1-.9.8-1.5 1.6-1.5h15.4c.8 0 1.3.6 1.2 1.5l-.2 2.1c-.1.6.2.7.5.2 1.8-2.7 4.4-4.5 8.1-4.5 1.7 0 2.9.4 3.8 1zm-2.2 50.2l6-49c.1-.9.7-1.5 1.6-1.5h15.3c.9 0 1.4.6 1.3 1.5l-6 49c-.1.9-.8 1.5-1.6 1.5h-15.4c-.8 0-1.4-.6-1.2-1.5zm6.7-63c.8-6.3 5.4-10.5 11.4-10.5 6.1 0 9.6 4.2 8.8 10.5-.8 6.3-5.3 10.5-11.4 10.5-6 0-9.5-4.2-8.8-10.5zM146.2 58l2.2-18c1.3-10.6 9.7-17.8 22.7-17.8s19.4 7.2 18.1 17.8l-.2 2.2c-.1.9-.8 1.6-1.7 1.6l-15.4.5c-.8 0-1.4-.5-1.3-1.4l.2-1.4c.3-1.9-.5-3.2-1.7-3.2-1.4 0-2.4 1.3-2.6 3.2l-1.9 15c-.2 1.9.5 3.2 1.9 3.2 1.2 0 2.2-1.3 2.5-3.2l.2-1.5c.1-.9.7-1.5 1.6-1.5l15.3.2c.9 0 1.4.6 1.3 1.5L187 58c-1.4 11.3-9.5 17.8-22.5 17.8s-19.7-6.5-18.3-17.8zm43.3 1.4l.1-.3c.1-.9.7-1.5 1.6-1.5h14.6c.8 0 1.4.2 1.3.6v.7c-.3 2.2 1.2 3.1 2.4 3.1s1.9-.8 2.1-1.9c.3-2.8-4.5-3.4-8.5-4.8-5.2-1.8-11.6-6.1-10.4-16.1 1.3-10.5 9.7-17 21.1-17 11.9 0 18.7 7.3 17.4 18.2-.1.6-.7 1-1.6 1h-14.1c-.9 0-1.4-.5-1.3-1.1l.1-1c.2-1.7-.6-2.6-1.8-2.6-1.5 0-2.2 1.5-2.4 2.6-.3 3 3.7 4.3 6.2 5.1 6.6 2.1 14.9 5.3 13.6 15.5-1.2 9.9-10 15.9-21.9 15.9-12.4 0-19.7-6.6-18.5-16.4zm90.8-31.9C278.7 40.5 270 49 258.7 49h-5.4c-.3 0-.6.2-.7.6l-2.9 23.9c-.1.9-.8 1.5-1.6 1.5h-15.4c-.8 0-1.3-.6-1.2-1.5l8.2-67c.1-.9.8-1.5 1.6-1.5h21.9c11.8 0 18.7 9.2 17.1 22.5zm-18.3.4c.6-4.6-1.2-6.8-4-6.8h-1.3c-.3 0-.6.2-.6.6l-1.5 12.2c-.1.4.1.6.5.6h1.2c2.9 0 5.1-2.1 5.7-6.6zM279.5 58l2.2-18c1.3-10.6 9.7-17.8 22.9-17.8 13.1 0 19.6 7.2 18.3 17.8l-2.2 18c-1.4 11.3-9.5 17.8-22.7 17.8s-19.9-6.5-18.5-17.8zm23.2-1.5l1.8-15c.2-1.9-.6-3.2-1.9-3.2-1.5 0-2.6 1.3-2.8 3.2l-1.9 15c-.2 1.9.6 3.2 2 3.2s2.5-1.3 2.8-3.2zm20.7 2.9l.1-.3c.1-.9.7-1.5 1.6-1.5h14.6c.8 0 1.4.2 1.3.6v.7c-.3 2.2 1.2 3.1 2.4 3.1s1.9-.8 2.1-1.9c.3-2.8-4.5-3.4-8.5-4.8-5.2-1.8-11.6-6.1-10.4-16.1 1.3-10.5 9.7-17 21.1-17 11.9 0 18.7 7.3 17.4 18.2-.1.6-.7 1-1.6 1h-14.1c-.9 0-1.4-.5-1.3-1.1l.1-1c.2-1.7-.6-2.6-1.8-2.6-1.5 0-2.2 1.5-2.4 2.6-.3 3 3.7 4.3 6.2 5.1 6.6 2.1 14.9 5.3 13.6 15.5-1.2 9.9-10 15.9-21.9 15.9-12.4 0-19.7-6.6-18.5-16.4zM394.8 36h-4.1c-.4 0-.6.2-.6.6l-2.4 19.2c-.3 2.6.9 3.1 2.7 3h.2c.8 0 1.3.6 1.2 1.5l-1.6 13.2c-.1.9-.8 1.5-1.6 1.5h-4.7c-9.5 0-15.8-1.7-14.6-11.6l3.3-26.8c.1-.3-.1-.6-.5-.6h-2.6c-.9 0-1.4-.6-1.3-1.5l1.2-10c.2-.9.8-1.5 1.7-1.5h2.6c.4 0 .6-.2.7-.6l1.3-10.7c.1-.9.7-1.5 1.6-1.5h14.6c.8 0 1.3.6 1.2 1.5l-1.3 10.7c0 .3.1.6.5.6h4.1c.9 0 1.4.6 1.3 1.5l-1.3 10c-.1.9-.7 1.5-1.6 1.5zm41.6 17.7h-20.6c-.3 0-.6.2-.6.6l-.3 2.2c-.2 1.9.5 3.2 1.9 3.2 1.3 0 2.1-1.2 2.5-2.5.4-.9.9-1.4 1.8-1.3l14.7 1c.9.1 1.4.6 1.2 1.6-2.1 11.7-9.1 17.3-22.2 17.3-13 0-19.7-6.5-18.3-17.8l2.2-18c1.3-10.6 9.7-17.8 22.7-17.8s19.4 7.2 18.1 17.8L438 52.2c-.1.9-.7 1.5-1.6 1.5zm-19.6-12.2l-.3 2.4c-.1.4.1.6.5.6h3.2c.4 0 .6-.2.6-.6l.3-2.4c.3-1.9-.5-3.2-1.7-3.2-1.4 0-2.4 1.3-2.6 3.2zm58.7-18.2c.6.4.7 1 .5 1.9l-4.4 15.7c-.3 1.1-.8 1.2-1.8 1-1.5-.4-3.9-.4-5.6.4-2 .9-3.5 3.3-3.7 5.4l-3.2 25.7c-.1.9-.7 1.5-1.6 1.5h-15.3c-.9 0-1.4-.6-1.3-1.5l6-48.9c.1-.9.8-1.5 1.6-1.5h15.4c.8 0 1.3.6 1.2 1.5l-.2 2.1c-.1.6.2.7.5.2 1.8-2.7 4.4-4.5 8.1-4.5 1.7 0 2.9.4 3.8 1zm-2.1 36.1l.1-.3c.1-.9.7-1.5 1.6-1.5h14.6c.8 0 1.4.2 1.3.6v.7c-.3 2.2 1.2 3.1 2.4 3.1s1.9-.8 2.1-1.9c.3-2.8-4.5-3.4-8.5-4.8-5.2-1.8-11.6-6.1-10.4-16.1 1.3-10.5 9.7-17 21.1-17 11.9 0 18.7 7.3 17.4 18.2-.1.6-.7 1-1.6 1h-14.1c-.9 0-1.4-.5-1.3-1.1l.1-1c.2-1.7-.6-2.6-1.8-2.6-1.5 0-2.2 1.5-2.4 2.6-.3 3 3.7 4.3 6.2 5.1 6.6 2.1 14.9 5.3 13.6 15.5-1.2 9.9-10 15.9-21.9 15.9-12.4 0-19.7-6.6-18.5-16.4z"/></svg>