<svg viewBox="0 0 220 300" xmlns="http://www.w3.org/2000/svg" fill-rule="evenodd" clip-rule="evenodd" stroke-linejoin="round" stroke-miterlimit="1.414"><g transform="scale(110 100)"><path fill="none" d="M0 0h2v3H0z"/><clipPath id="a"><path d="M0 0h2v3H0z"/></clipPath><g clip-path="url(#a)"><path d="M1.597 0c.013.001.016.001.028.004A.24.24 0 0 1 1.8.17a.276.276 0 0 1-.049.25l-.02.022L.58 1.5l1.15 1.057.011.01a.28.28 0 0 1 .01.355.219.219 0 0 1-.29.039l-.022-.019L.08 1.694c-.01-.01-.013-.011-.021-.021a.278.278 0 0 1 0-.342l.02-.022L1.438.06 1.46.04A.22.22 0 0 1 1.597 0z" fill="#fff" fill-rule="nonzero"/></g></g></svg>