<svg viewBox="0 0 220 300" xmlns="http://www.w3.org/2000/svg" fill-rule="evenodd" clip-rule="evenodd" stroke-linejoin="round" stroke-miterlimit="1.414"><g transform="scale(110 100)"><path fill="none" d="M0 0h2v3H0z"/><clipPath id="a"><path d="M0 0h2v3H0z"/></clipPath><g clip-path="url(#a)"><path d="M.403 0C.39 0 .387 0 .375.004A.24.24 0 0 0 .2.17a.276.276 0 0 0 .049.25l.02.022L1.42 1.5.269 2.558l-.011.01a.28.28 0 0 0-.01.355.22.22 0 0 0 .29.039l.022-.019 1.36-1.249c.01-.01.013-.011.021-.021a.278.278 0 0 0 0-.342l-.02-.022L.562.06.54.038A.22.22 0 0 0 .403 0z" fill="#fff" fill-rule="nonzero"/></g></g></svg>