<svg viewBox="0 0 300 300" xmlns="http://www.w3.org/2000/svg" fill-rule="evenodd" clip-rule="evenodd" stroke-linejoin="round" stroke-miterlimit="1.414"><path fill="none" d="M0 0h300v300H0z"/><path d="M150 0c82.787 0 150 67.213 150 150s-67.213 150-150 150S0 232.787 0 150 67.213 0 150 0zm-.9 240.06c13.894 0 24.187-10.293 24.187-24.188 0-14.409-10.035-24.187-24.188-24.187-14.152 0-24.187 9.778-24.187 24.187 0 13.895 10.035 24.188 24.187 24.188zm22.386-180.12H130.83c-2.316 0-3.602 1.544-3.602 3.86l4.374 108.586c0 2.316 1.801 3.86 4.117 3.86h30.62c2.316 0 4.117-1.544 4.117-3.86L175.088 63.8c0-2.316-1.029-3.86-3.602-3.86z" fill="#d14949"/></svg>