<svg viewBox="0 0 1024 999" xmlns="http://www.w3.org/2000/svg" fill-rule="evenodd" clip-rule="evenodd" stroke-linejoin="round" stroke-miterlimit="1.414"><g transform="translate(0 -12.637)"><clipPath id="a"><path d="M0 12.637h1024v998.725H0z"/></clipPath><g clip-path="url(#a)"><path d="M511.953 13.276C229.228 13.276 0 242.504 0 525.292c0 226.21 146.69 418.099 350.145 485.828 25.616 4.69 34.951-11.121 34.951-24.7 0-12.132-.44-44.35-.691-87.064C241.99 930.284 211.94 830.71 211.94 830.71c-23.29-59.123-56.859-74.87-56.859-74.87-46.487-31.777 3.52-31.148 3.52-31.148 51.39 3.646 78.421 52.773 78.421 52.773 45.67 78.233 119.848 55.633 149.016 42.558 4.652-33.097 17.853-55.665 32.5-68.457-113.687-12.919-233.22-56.86-233.22-253.054 0-55.885 19.959-101.586 52.71-137.386-5.28-12.95-22.85-65 4.998-135.5 0 0 42.998-13.767 140.812 52.49 40.83-11.347 84.645-17.036 128.177-17.224 43.47.188 87.285 5.877 128.177 17.224 97.751-66.257 140.655-52.49 140.655-52.49 27.942 70.5 10.372 122.55 5.092 135.5 32.814 35.8 52.647 81.501 52.647 137.386 0 196.697-119.722 239.978-233.786 252.645 18.387 15.81 34.763 47.053 34.763 94.828 0 68.426-.629 123.651-.629 140.435 0 13.7 9.21 29.64 35.204 24.64C877.436 943.202 1024 751.44 1024 525.292c0-282.788-229.26-512.016-512.047-512.016" fill="#585858"/></g></g></svg>