<svg viewBox="0 0 20 20" xmlns="http://www.w3.org/2000/svg" fill-rule="evenodd" clip-rule="evenodd" stroke-linejoin="round" stroke-miterlimit="1.414"><path d="M13.123 14.568a8.14 8.14 0 0 1-4.993 1.71c-4.464 0-8.138-3.673-8.138-8.138C-.008 3.676 3.666.002 8.13.002c4.465 0 8.139 3.674 8.139 8.138a8.14 8.14 0 0 1-1.711 4.993L20 18.555 18.556 20l-5.423-5.432h-.01zm-4.985-.326c3.35 0 6.104-2.755 6.104-6.104s-2.755-6.103-6.104-6.103c-3.348 0-6.103 2.754-6.103 6.103 0 3.35 2.755 6.104 6.103 6.104z" fill="#7d7d7d"/></svg>