<svg viewBox="0 0 300 300" xmlns="http://www.w3.org/2000/svg" fill-rule="evenodd" clip-rule="evenodd" stroke-linejoin="round" stroke-miterlimit="1.414"><g transform="scale(150 100)"><path fill="none" d="M0 0h2v3H0z"/><clipPath id="a"><path d="M0 0h2v3H0z"/></clipPath><g clip-path="url(#a)" fill="#7d7d7d" fill-rule="nonzero"><path d="M.85 0c.328 0 .653.295.789.798.151.561.005 1.27-.37 1.589-.348.294-.83.19-1.099-.344A1.82 1.82 0 0 1 .148.556C.302.218.564.005.842 0H.85zM.848.311C.685.312.524.41.407.578.212.856.15 1.322.27 1.694c.105.324.337.548.582.547.303-.002.592-.357.635-.833A1.404 1.404 0 0 0 1.42.829C1.311.52 1.083.311.848.311z"/><path d="M1.4 1.938a.091.091 0 0 1 .062.036l.006.01.502.752a.226.226 0 0 1 .003.215c-.036.06-.105.067-.146.01l-.003-.005-.502-.753c-.047-.072-.033-.207.03-.25a.08.08 0 0 1 .03-.014.08.08 0 0 1 .018-.001z"/></g></g></svg>